<?xml version="1.0" standalone="no"?><!DOCTYPE svg PUBLIC "-//W3C//DTD SVG 1.1//EN" "http://www.w3.org/Graphics/SVG/1.1/DTD/svg11.dtd"><svg t="1735453274665" class="icon" viewBox="0 0 1024 1024" version="1.1" xmlns="http://www.w3.org/2000/svg" p-id="4224" xmlns:xlink="http://www.w3.org/1999/xlink" width="200" height="200"><path d="M563.626667 798.378667a1.493333 1.493333 0 0 0-1.237334-0.426667 112.341333 112.341333 0 0 1-107.946666-78.08l-29.866667-88.32a47.914667 47.914667 0 0 0-31.146667-31.573333l-88.746666-29.866667a112.213333 112.213333 0 0 1-77.696-109.696 112.938667 112.938667 0 0 1 80.64-107.52l321.28-99.84a115.2 115.2 0 0 1 33.792-5.077333 112.298667 112.298667 0 0 1 80.554666 33.621333 115.2 115.2 0 0 1 28.16 114.346667l-99.84 321.706666a113.28 113.28 0 0 1-107.904 80.725334z m98.56-486.869334a61.269333 61.269333 0 0 0-14.933334 2.133334L325.546667 413.866667a48.554667 48.554667 0 0 0-35.370667 47.445333 48.896 48.896 0 0 0 34.133333 48.170667l88.746667 29.44a112.597333 112.597333 0 0 1 72.106667 72.533333l29.397333 87.893333a49.365333 49.365333 0 0 0 48.213333 34.56 48.512 48.512 0 0 0 47.36-35.413333l99.84-321.706667a48.981333 48.981333 0 0 0-12.373333-49.92 48.128 48.128 0 0 0-35.413333-15.36z" fill="#2a61ca" p-id="4225" data-spm-anchor-id="a313x.search_index.0.i1.21af3a81UNKZwF" class="selected"></path><path d="M640 970.666667H384c-231.765333 0-330.666667-98.901333-330.666667-330.666667V384c0-231.765333 98.901333-330.666667 330.666667-330.666667h256c231.765333 0 330.666667 98.901333 330.666667 330.666667v256c0 231.765333-98.901333 330.666667-330.666667 330.666667z m-256-853.333334C187.136 117.333333 117.333333 187.136 117.333333 384v256c0 196.864 69.802667 266.666667 266.666667 266.666667h256c196.864 0 266.666667-69.802667 266.666667-266.666667V384c0-196.864-69.76-266.666667-266.666667-266.666667z" fill="#2a61ca" p-id="4226" data-spm-anchor-id="a313x.search_index.0.i0.21af3a81UNKZwF" class="selected"></path></svg>